# xmcd CD database file
#
# Track frame offsets:
#	150
#	20871
#	40347
#	55955
#	69785
#	86273
#	101409
#	120909
#	126936
#	149516
#	165375
#	183315
#	198068
#	206486
#	215100
#	229312
#
# Disc length: 3313 seconds
#
# Revision: 0
# Processed by: cddbd v1.5.2PL0 Copyright (c) Steve Scherf et al.
# Submitted via: CDex 1.70beta2
#
DISCID=de0cef10
DTITLE=A Doce Vita - Sons de Cine
DYEAR=2012
DGENRE=Jazz
TTITLE0=01. Blue Moon and Singing in the Rain
TTITLE1=02. Moon River
TTITLE2=03. The Goodfather
TTITLE3=04. I wanna Be Loved by You
TTITLE4=05. La Vita é Bella
TTITLE5=06. My Favorite Things
TTITLE6=07. The Pink Panther
TTITLE7=08. The Inspector
TTITLE8=09. Over the Rainbow
TTITLE9=10. The Boy from Ipanema
TTITLE10=11. Cheek to Cheek
TTITLE11=12. The Flinstones
TTITLE12=13. Night and Day
TTITLE13=14. Hit the Road, Jack
TTITLE14=15. Mission: Impossible
TTITLE15=16. As Time Goes By
EXTD=YEAR: 2012
EXTT0=
EXTT1=
EXTT2=
EXTT3=
EXTT4=
EXTT5=
EXTT6=
EXTT7=
EXTT8=
EXTT9=
EXTT10=
EXTT11=
EXTT12=
EXTT13=
EXTT14=
EXTT15=
PLAYORDER=
